<svg id="Filled_stroke_cutting_Ex" height="512" viewBox="0 0 512 512" width="512" xmlns="http://www.w3.org/2000/svg" data-name="Filled stroke cutting Ex"><g><g><rect fill="#79d8eb" height="464" rx="20" width="224" x="144" y="24"/><g><path d="m348 496h-184a28.0314 28.0314 0 0 1 -28-28v-52h16v52a12.0137 12.0137 0 0 0 12 12h184a12.0137 12.0137 0 0 0 12-12v-140h16v140a28.0314 28.0314 0 0 1 -28 28z"/><path d="m152 144h-16v-100a28.0314 28.0314 0 0 1 28-28h184a28.0314 28.0314 0 0 1 28 28v12h-16v-12a12.0137 12.0137 0 0 0 -12-12h-184a12.0137 12.0137 0 0 0 -12 12z"/></g><rect fill="#fac850" height="48" rx="20" width="128" x="192" y="400"/><path d="m300 456h-88a28.0314 28.0314 0 0 1 -28-28v-8a28.0314 28.0314 0 0 1 28-28h60v16h-60a12.0137 12.0137 0 0 0 -12 12v8a12.0137 12.0137 0 0 0 12 12h88a12.0137 12.0137 0 0 0 12-12v-8a12.0137 12.0137 0 0 0 -12-12h-12v-16h12a28.0314 28.0314 0 0 1 28 28v8a28.0314 28.0314 0 0 1 -28 28z"/><path d="m224 56h64v16h-64z"/></g><path d="m220.1147 206.0476 11.8853-81.1396-70.2782 46.06a112.0577 112.0577 0 1 0 58.3929 35.0795z" fill="#dcf9fe"/><path d="m136 400a120.0128 120.0128 0 0 1 -98.4863-188.5767l13.123 9.1534a104.0057 104.0057 0 1 0 163.4717-9.2442 8.0024 8.0024 0 0 1 -1.9092-6.4443l9.3071-63.5371-55.3994 36.3081a7.9974 7.9974 0 0 1 -6.2153 1.0967 104.5721 104.5721 0 0 0 -23.8916-2.7559 103.225 103.225 0 0 0 -74.2866 31.2158l-11.4278-11.1982a119.1054 119.1054 0 0 1 85.7144-36.0176 120.8 120.8 0 0 1 24.15 2.4336l67.4648-44.2163a8 8 0 0 1 12.3008 7.8506l-11.36 77.5517a120.0025 120.0025 0 0 1 -92.5556 196.3804z"/><rect fill="#fa5d3f" height="48" rx="20" width="144" x="64" y="264"/><path d="m100 224h72a20 20 0 0 1 20 20v20a0 0 0 0 1 0 0h-112a0 0 0 0 1 0 0v-20a20 20 0 0 1 20-20z" fill="#fa7d29"/><path d="m80 312h112a0 0 0 0 1 0 0v12a20 20 0 0 1 -20 20h-72a20 20 0 0 1 -20-20v-12a0 0 0 0 1 0 0z" fill="#fa7d29"/><path d="m96 264 40 56 40-56z" fill="#fac850"/><path d="m200 258.7042v-14.7042a28.0314 28.0314 0 0 0 -28-28h-72a28.0314 28.0314 0 0 0 -28 28v14.7042a28.0357 28.0357 0 0 0 -16 25.2958v8a28.0357 28.0357 0 0 0 16 25.2958v6.7042a28.0314 28.0314 0 0 0 28 28h72a28.0314 28.0314 0 0 0 28-28v-6.7042a28.0357 28.0357 0 0 0 16-25.2958v-8a28.0357 28.0357 0 0 0 -16-25.2958zm-112-14.7042a12.0137 12.0137 0 0 1 12-12h72a12.0137 12.0137 0 0 1 12 12v12h-96zm46.4026 60-22.8572-32h48.9092l-22.8572 32zm-62.4026-20a12.0137 12.0137 0 0 1 12-12h7.8832l22.8568 32h-30.74a12.0137 12.0137 0 0 1 -12-12zm112 40a12.0137 12.0137 0 0 1 -12 12h-72a12.0137 12.0137 0 0 1 -12-12v-4h38.1689l3.3213 4.65a8 8 0 0 0 13.02 0l3.3213-4.65h38.1685zm16-32a12.0137 12.0137 0 0 1 -12 12h-30.74l22.8571-32h7.8829a12.0137 12.0137 0 0 1 12 12z"/><g><path d="m291.8853 265.9524-3.8853 81.1396 62.2782-46.06a112.0577 112.0577 0 1 0 -58.3929-35.0795z" fill="#dcf9fe"/><path d="m287.999 355.0918a8 8 0 0 1 -7.99-8.3828l3.7334-77.9688a120.0027 120.0027 0 0 1 169.4041-168.6591l-10.292 12.2509a104.0017 104.0017 0 0 0 -144.9629 148.3355 8.0007 8.0007 0 0 1 1.9844 5.6675l-3.0786 64.3 48.7241-36.035a7.9991 7.9991 0 0 1 6.5869-1.3555 104.0178 104.0178 0 0 0 103.5596-168.0985l12.2509-10.292a120.0485 120.0485 0 0 1 -115.8 194.7671l-59.3619 43.9028a7.9945 7.9945 0 0 1 -4.758 1.5679z"/><path d="m432 176c0 40-48 88-56 88s-56-48-56-88a56 56 0 0 1 112 0z" fill="#fac850"/><circle cx="376" cy="176" fill="#fffdfa" r="24"/><path d="m376 208a32 32 0 1 1 32-32 32.0361 32.0361 0 0 1 -32 32zm0-48a16 16 0 1 0 16 16 16.0183 16.0183 0 0 0 -16-16z"/><path d="m413.355 239.8594c9.9512-13.0127 26.645-38.6128 26.645-63.8594a64 64 0 0 0 -128 0c0 25.2466 16.6938 50.8467 26.645 63.8594a208.2467 208.2467 0 0 0 13.9094 16.1406h-32.5544v16h112v-16h-32.5544a208.2467 208.2467 0 0 0 13.9094-16.1406zm-85.355-63.8594a48 48 0 0 1 96 0c0 33.24-37.4131 72.8857-48 79.4473-10.5869-6.5616-48-46.2073-48-79.4473z"/></g></g></svg>